<mxfile host="app.diagrams.net" modified="2023-02-15T12:41:22.337Z" agent="5.0 (X11)" etag="UcqWdtL70pfsBQum5WkK" version="20.8.20" type="github">
  <diagram id="C5RBs43oDa-KdzZeNtuy" name="Page-1">
    <mxGraphModel dx="1434" dy="774" grid="1" gridSize="10" guides="1" tooltips="1" connect="1" arrows="1" fold="1" page="1" pageScale="1" pageWidth="827" pageHeight="1169" math="0" shadow="0">
      <root>
        <mxCell id="WIyWlLk6GJQsqaUBKTNV-0" />
        <mxCell id="WIyWlLk6GJQsqaUBKTNV-1" parent="WIyWlLk6GJQsqaUBKTNV-0" />
        <mxCell id="eXDylZAKoLRSiOtUwyun-0" value="start make diamond" style="rounded=1;whiteSpace=wrap;html=1;" parent="WIyWlLk6GJQsqaUBKTNV-1" vertex="1">
          <mxGeometry x="697" y="200" width="120" height="60" as="geometry" />
        </mxCell>
        <mxCell id="eXDylZAKoLRSiOtUwyun-1" value="" style="endArrow=none;html=1;rounded=0;entryX=0.5;entryY=1;entryDx=0;entryDy=0;" parent="WIyWlLk6GJQsqaUBKTNV-1" target="eXDylZAKoLRSiOtUwyun-0" edge="1">
          <mxGeometry width="50" height="50" relative="1" as="geometry">
            <mxPoint x="757" y="320" as="sourcePoint" />
            <mxPoint x="737" y="270" as="targetPoint" />
            <Array as="points">
              <mxPoint x="757" y="310" />
            </Array>
          </mxGeometry>
        </mxCell>
        <mxCell id="eXDylZAKoLRSiOtUwyun-2" value="&lt;div&gt;input a number&lt;/div&gt;" style="shape=parallelogram;perimeter=parallelogramPerimeter;whiteSpace=wrap;html=1;fixedSize=1;" parent="WIyWlLk6GJQsqaUBKTNV-1" vertex="1">
          <mxGeometry x="697" y="320" width="120" height="60" as="geometry" />
        </mxCell>
        <mxCell id="eXDylZAKoLRSiOtUwyun-3" value="" style="endArrow=none;html=1;rounded=0;entryX=0.5;entryY=1;entryDx=0;entryDy=0;entryPerimeter=0;exitX=0.5;exitY=0;exitDx=0;exitDy=0;" parent="WIyWlLk6GJQsqaUBKTNV-1" target="eXDylZAKoLRSiOtUwyun-2" edge="1">
          <mxGeometry width="50" height="50" relative="1" as="geometry">
            <mxPoint x="757" y="440" as="sourcePoint" />
            <mxPoint x="757" y="390" as="targetPoint" />
            <Array as="points">
              <mxPoint x="757" y="410" />
            </Array>
          </mxGeometry>
        </mxCell>
        <mxCell id="eXDylZAKoLRSiOtUwyun-4" value="if a number is even" style="rhombus;whiteSpace=wrap;html=1;" parent="WIyWlLk6GJQsqaUBKTNV-1" vertex="1">
          <mxGeometry x="687" y="440" width="140" height="80" as="geometry" />
        </mxCell>
        <mxCell id="eXDylZAKoLRSiOtUwyun-5" value="" style="endArrow=classic;html=1;rounded=0;" parent="WIyWlLk6GJQsqaUBKTNV-1" edge="1">
          <mxGeometry width="50" height="50" relative="1" as="geometry">
            <mxPoint x="827" y="480" as="sourcePoint" />
            <mxPoint x="895" y="480" as="targetPoint" />
            <Array as="points">
              <mxPoint x="867" y="480" />
            </Array>
          </mxGeometry>
        </mxCell>
        <mxCell id="eXDylZAKoLRSiOtUwyun-7" value="helf = height // 2" style="rhombus;whiteSpace=wrap;html=1;" parent="WIyWlLk6GJQsqaUBKTNV-1" vertex="1">
          <mxGeometry x="687" y="560" width="140" height="80" as="geometry" />
        </mxCell>
        <mxCell id="eXDylZAKoLRSiOtUwyun-8" value="" style="endArrow=classic;html=1;rounded=0;exitX=0.5;exitY=1;exitDx=0;exitDy=0;entryX=0.5;entryY=0;entryDx=0;entryDy=0;" parent="WIyWlLk6GJQsqaUBKTNV-1" source="eXDylZAKoLRSiOtUwyun-4" target="eXDylZAKoLRSiOtUwyun-7" edge="1">
          <mxGeometry width="50" height="50" relative="1" as="geometry">
            <mxPoint x="831" y="470" as="sourcePoint" />
            <mxPoint x="881" y="420" as="targetPoint" />
            <Array as="points" />
          </mxGeometry>
        </mxCell>
        <mxCell id="eXDylZAKoLRSiOtUwyun-42" value="" style="edgeStyle=orthogonalEdgeStyle;rounded=0;orthogonalLoop=1;jettySize=auto;html=1;" parent="WIyWlLk6GJQsqaUBKTNV-1" source="eXDylZAKoLRSiOtUwyun-9" target="eXDylZAKoLRSiOtUwyun-14" edge="1">
          <mxGeometry relative="1" as="geometry" />
        </mxCell>
        <mxCell id="eXDylZAKoLRSiOtUwyun-9" value="if the line is minder than half number" style="rhombus;whiteSpace=wrap;html=1;" parent="WIyWlLk6GJQsqaUBKTNV-1" vertex="1">
          <mxGeometry x="682" y="680" width="150" height="100" as="geometry" />
        </mxCell>
        <mxCell id="eXDylZAKoLRSiOtUwyun-10" value="line == half" style="rhombus;whiteSpace=wrap;html=1;" parent="WIyWlLk6GJQsqaUBKTNV-1" vertex="1">
          <mxGeometry x="690" y="820" width="140" height="80" as="geometry" />
        </mxCell>
        <mxCell id="eXDylZAKoLRSiOtUwyun-11" value="" style="endArrow=classic;html=1;rounded=0;exitX=0.5;exitY=1;exitDx=0;exitDy=0;" parent="WIyWlLk6GJQsqaUBKTNV-1" source="eXDylZAKoLRSiOtUwyun-7" target="eXDylZAKoLRSiOtUwyun-9" edge="1">
          <mxGeometry width="50" height="50" relative="1" as="geometry">
            <mxPoint x="1051" y="770" as="sourcePoint" />
            <mxPoint x="1101" y="720" as="targetPoint" />
          </mxGeometry>
        </mxCell>
        <mxCell id="eXDylZAKoLRSiOtUwyun-12" value="" style="endArrow=classic;html=1;rounded=0;exitX=0.5;exitY=1;exitDx=0;exitDy=0;" parent="WIyWlLk6GJQsqaUBKTNV-1" source="eXDylZAKoLRSiOtUwyun-9" target="eXDylZAKoLRSiOtUwyun-10" edge="1">
          <mxGeometry width="50" height="50" relative="1" as="geometry">
            <mxPoint x="1051" y="770" as="sourcePoint" />
            <mxPoint x="1101" y="720" as="targetPoint" />
          </mxGeometry>
        </mxCell>
        <mxCell id="eXDylZAKoLRSiOtUwyun-14" value="stars = 1+2 * line" style="rhombus;whiteSpace=wrap;html=1;" parent="WIyWlLk6GJQsqaUBKTNV-1" vertex="1">
          <mxGeometry x="865" y="690" width="150" height="80" as="geometry" />
        </mxCell>
        <mxCell id="eXDylZAKoLRSiOtUwyun-15" value="stars = height" style="rhombus;whiteSpace=wrap;html=1;" parent="WIyWlLk6GJQsqaUBKTNV-1" vertex="1">
          <mxGeometry x="870" y="820" width="140" height="80" as="geometry" />
        </mxCell>
        <mxCell id="eXDylZAKoLRSiOtUwyun-16" value="" style="endArrow=classic;html=1;rounded=0;exitX=1;exitY=0.5;exitDx=0;exitDy=0;entryX=0;entryY=0.5;entryDx=0;entryDy=0;" parent="WIyWlLk6GJQsqaUBKTNV-1" source="eXDylZAKoLRSiOtUwyun-10" target="eXDylZAKoLRSiOtUwyun-15" edge="1">
          <mxGeometry width="50" height="50" relative="1" as="geometry">
            <mxPoint x="1051" y="770" as="sourcePoint" />
            <mxPoint x="1101" y="720" as="targetPoint" />
          </mxGeometry>
        </mxCell>
        <mxCell id="eXDylZAKoLRSiOtUwyun-17" value="" style="endArrow=classic;html=1;rounded=0;exitX=0.5;exitY=1;exitDx=0;exitDy=0;entryX=0.5;entryY=0;entryDx=0;entryDy=0;" parent="WIyWlLk6GJQsqaUBKTNV-1" source="eXDylZAKoLRSiOtUwyun-10" target="eXDylZAKoLRSiOtUwyun-27" edge="1">
          <mxGeometry width="50" height="50" relative="1" as="geometry">
            <mxPoint x="1051" y="770" as="sourcePoint" />
            <mxPoint x="801" y="940" as="targetPoint" />
          </mxGeometry>
        </mxCell>
        <mxCell id="eXDylZAKoLRSiOtUwyun-18" value="print &quot; &quot; space &quot; &quot; stars &quot; &quot; space" style="rounded=1;whiteSpace=wrap;html=1;" parent="WIyWlLk6GJQsqaUBKTNV-1" vertex="1">
          <mxGeometry x="1121" y="760" width="120" height="60" as="geometry" />
        </mxCell>
        <mxCell id="eXDylZAKoLRSiOtUwyun-19" value="" style="endArrow=classic;html=1;rounded=0;exitX=0.5;exitY=0;exitDx=0;exitDy=0;entryX=1;entryY=0.5;entryDx=0;entryDy=0;" parent="WIyWlLk6GJQsqaUBKTNV-1" source="eXDylZAKoLRSiOtUwyun-18" target="eXDylZAKoLRSiOtUwyun-7" edge="1">
          <mxGeometry width="50" height="50" relative="1" as="geometry">
            <mxPoint x="1051" y="920" as="sourcePoint" />
            <mxPoint x="1101" y="870" as="targetPoint" />
            <Array as="points">
              <mxPoint x="1181" y="600" />
            </Array>
          </mxGeometry>
        </mxCell>
        <mxCell id="eXDylZAKoLRSiOtUwyun-20" value="yes" style="text;html=1;strokeColor=none;fillColor=none;align=center;verticalAlign=middle;whiteSpace=wrap;rounded=0;" parent="WIyWlLk6GJQsqaUBKTNV-1" vertex="1">
          <mxGeometry x="831" y="450" width="60" height="30" as="geometry" />
        </mxCell>
        <mxCell id="eXDylZAKoLRSiOtUwyun-21" value="no" style="text;html=1;strokeColor=none;fillColor=none;align=center;verticalAlign=middle;whiteSpace=wrap;rounded=0;" parent="WIyWlLk6GJQsqaUBKTNV-1" vertex="1">
          <mxGeometry x="791" y="520" width="60" height="30" as="geometry" />
        </mxCell>
        <mxCell id="eXDylZAKoLRSiOtUwyun-22" value="yes" style="text;html=1;strokeColor=none;fillColor=none;align=center;verticalAlign=middle;whiteSpace=wrap;rounded=0;" parent="WIyWlLk6GJQsqaUBKTNV-1" vertex="1">
          <mxGeometry x="791" y="640" width="60" height="30" as="geometry" />
        </mxCell>
        <mxCell id="eXDylZAKoLRSiOtUwyun-23" value="no" style="text;html=1;strokeColor=none;fillColor=none;align=center;verticalAlign=middle;whiteSpace=wrap;rounded=0;" parent="WIyWlLk6GJQsqaUBKTNV-1" vertex="1">
          <mxGeometry x="781" y="785" width="60" height="30" as="geometry" />
        </mxCell>
        <mxCell id="eXDylZAKoLRSiOtUwyun-24" value="Text" style="text;html=1;strokeColor=none;fillColor=none;align=center;verticalAlign=middle;whiteSpace=wrap;rounded=0;" parent="WIyWlLk6GJQsqaUBKTNV-1" vertex="1">
          <mxGeometry x="901" y="990" width="60" height="30" as="geometry" />
        </mxCell>
        <mxCell id="eXDylZAKoLRSiOtUwyun-25" value="yes" style="text;html=1;strokeColor=none;fillColor=none;align=center;verticalAlign=middle;whiteSpace=wrap;rounded=0;" parent="WIyWlLk6GJQsqaUBKTNV-1" vertex="1">
          <mxGeometry x="820" y="830" width="60" height="30" as="geometry" />
        </mxCell>
        <mxCell id="eXDylZAKoLRSiOtUwyun-26" value="no" style="text;html=1;strokeColor=none;fillColor=none;align=center;verticalAlign=middle;whiteSpace=wrap;rounded=0;" parent="WIyWlLk6GJQsqaUBKTNV-1" vertex="1">
          <mxGeometry x="781" y="910" width="60" height="30" as="geometry" />
        </mxCell>
        <mxCell id="eXDylZAKoLRSiOtUwyun-27" value="stars = 1+2*(heigt -line-1)" style="shape=parallelogram;perimeter=parallelogramPerimeter;whiteSpace=wrap;html=1;fixedSize=1;" parent="WIyWlLk6GJQsqaUBKTNV-1" vertex="1">
          <mxGeometry x="685" y="960" width="150" height="60" as="geometry" />
        </mxCell>
        <mxCell id="eXDylZAKoLRSiOtUwyun-29" value="yes" style="text;html=1;strokeColor=none;fillColor=none;align=center;verticalAlign=middle;whiteSpace=wrap;rounded=0;" parent="WIyWlLk6GJQsqaUBKTNV-1" vertex="1">
          <mxGeometry x="820" y="700" width="60" height="30" as="geometry" />
        </mxCell>
        <mxCell id="eXDylZAKoLRSiOtUwyun-31" value="spaces = ( heigt- stars)//2" style="shape=parallelogram;perimeter=parallelogramPerimeter;whiteSpace=wrap;html=1;fixedSize=1;" parent="WIyWlLk6GJQsqaUBKTNV-1" vertex="1">
          <mxGeometry x="1021" y="960" width="160" height="60" as="geometry" />
        </mxCell>
        <mxCell id="eXDylZAKoLRSiOtUwyun-32" value="" style="endArrow=classic;html=1;rounded=0;exitX=1;exitY=0.5;exitDx=0;exitDy=0;entryX=0;entryY=0.5;entryDx=0;entryDy=0;" parent="WIyWlLk6GJQsqaUBKTNV-1" source="eXDylZAKoLRSiOtUwyun-27" target="eXDylZAKoLRSiOtUwyun-31" edge="1">
          <mxGeometry width="50" height="50" relative="1" as="geometry">
            <mxPoint x="1051" y="750" as="sourcePoint" />
            <mxPoint x="1101" y="700" as="targetPoint" />
          </mxGeometry>
        </mxCell>
        <mxCell id="eXDylZAKoLRSiOtUwyun-33" value="" style="endArrow=classic;html=1;rounded=0;exitX=1;exitY=0.5;exitDx=0;exitDy=0;entryX=0.5;entryY=1;entryDx=0;entryDy=0;" parent="WIyWlLk6GJQsqaUBKTNV-1" source="eXDylZAKoLRSiOtUwyun-31" target="eXDylZAKoLRSiOtUwyun-18" edge="1">
          <mxGeometry width="50" height="50" relative="1" as="geometry">
            <mxPoint x="1051" y="750" as="sourcePoint" />
            <mxPoint x="1101" y="700" as="targetPoint" />
            <Array as="points">
              <mxPoint x="1181" y="990" />
            </Array>
          </mxGeometry>
        </mxCell>
        <mxCell id="eXDylZAKoLRSiOtUwyun-34" value="" style="endArrow=classic;html=1;rounded=0;exitX=1;exitY=0.5;exitDx=0;exitDy=0;entryX=0.5;entryY=0;entryDx=0;entryDy=0;" parent="WIyWlLk6GJQsqaUBKTNV-1" source="eXDylZAKoLRSiOtUwyun-14" target="eXDylZAKoLRSiOtUwyun-31" edge="1">
          <mxGeometry width="50" height="50" relative="1" as="geometry">
            <mxPoint x="1051" y="750" as="sourcePoint" />
            <mxPoint x="1041" y="990" as="targetPoint" />
            <Array as="points">
              <mxPoint x="1101" y="730" />
            </Array>
          </mxGeometry>
        </mxCell>
        <mxCell id="eXDylZAKoLRSiOtUwyun-35" value="" style="endArrow=classic;html=1;rounded=0;exitX=1;exitY=0.5;exitDx=0;exitDy=0;entryX=0;entryY=0.5;entryDx=0;entryDy=0;" parent="WIyWlLk6GJQsqaUBKTNV-1" source="eXDylZAKoLRSiOtUwyun-15" target="eXDylZAKoLRSiOtUwyun-31" edge="1">
          <mxGeometry width="50" height="50" relative="1" as="geometry">
            <mxPoint x="1051" y="750" as="sourcePoint" />
            <mxPoint x="1101" y="700" as="targetPoint" />
            <Array as="points">
              <mxPoint x="1030" y="860" />
            </Array>
          </mxGeometry>
        </mxCell>
        <mxCell id="eXDylZAKoLRSiOtUwyun-50" value="print the hrith must odden number" style="rounded=1;whiteSpace=wrap;html=1;" parent="WIyWlLk6GJQsqaUBKTNV-1" vertex="1">
          <mxGeometry x="891" y="450" width="120" height="60" as="geometry" />
        </mxCell>
      </root>
    </mxGraphModel>
  </diagram>
</mxfile>
